# Blender v2.80 (sub 75) OBJ File: ''
# www.blender.org
mtllib waterpool2.mtl
o Waterpool2
v -3.000000 2.000000 6.000000
v 3.000000 2.000000 6.000000
v -3.000000 1.000000 0.000000
v 3.000000 1.000000 0.000000
v -3.000000 1.000000 -6.000000
v 3.000000 1.000000 -6.000000
v 3.000000 3.000000 6.000000
v -3.000000 3.000000 6.000000
v -3.000000 3.000000 -6.000000
v 3.000000 3.000000 -6.000000
v 4.000000 3.000000 7.000000
v -4.000000 3.000000 7.000000
v 4.000000 0.000000 7.000000
v -4.000000 0.000000 7.000000
v -4.000000 3.000000 -7.000000
v -4.000000 0.000000 -7.000000
v 4.000000 3.000000 -7.000000
v 4.000000 0.000000 -7.000000
vt 0.602115 0.066352
vt 0.999870 0.066352
vt 0.602115 0.469594
vt 0.999870 0.469594
vt 0.602116 0.867348
vt 0.999870 0.867349
vt 0.999870 0.000060
vt 0.602115 0.000060
vt 0.071412 0.000067
vt 0.142821 0.428518
vt 0.000003 0.000067
vt 0.000003 0.856969
vt 0.142821 0.856969
vt 0.602115 0.999933
vt 0.999870 0.999933
vt 0.240955 0.856969
vt 0.169546 0.856969
vt 0.312364 0.428518
vt 0.169546 0.000067
vt 0.312364 0.000067
vt 0.366737 0.625858
vt 0.505113 0.625858
vt 0.366737 0.677749
vt 0.505113 0.677749
vt 0.557005 0.677749
vt 0.557005 0.919907
vt 0.505113 0.919907
vt 0.505113 0.971798
vt 0.366737 0.971798
vt 0.366737 0.919907
vt 0.314846 0.919907
vt 0.314846 0.677749
vt 0.297549 0.902610
vt 0.384034 0.989095
vt 0.487816 0.989095
vt 0.574302 0.902610
vt 0.574302 0.695046
vt 0.487816 0.608561
vt 0.384034 0.608561
vt 0.297549 0.695046
vn 0.0000 0.9864 -0.1644
vn 0.0000 1.0000 0.0000
vn 0.0000 0.0000 -1.0000
vn 1.0000 0.0000 0.0000
vn 0.0000 0.0000 1.0000
vn -1.0000 0.0000 0.0000
vn 0.0000 -1.0000 0.0000
usemtl None
s off
f 1/1/1 2/2/1 3/3/1
f 3/3/1 2/2/1 4/4/1
f 3/3/2 4/4/2 5/5/2
f 5/5/2 4/4/2 6/6/2
f 2/2/3 1/1/3 7/7/3
f 7/7/3 1/1/3 8/8/3
f 1/9/4 3/10/4 8/11/4
f 8/11/4 3/10/4 9/12/4
f 3/10/4 5/13/4 9/12/4
f 5/5/5 6/6/5 9/14/5
f 9/14/5 6/6/5 10/15/5
f 2/16/6 7/17/6 4/18/6
f 4/18/6 7/17/6 10/19/6
f 4/18/6 10/19/6 6/20/6
f 11/21/5 12/22/5 13/23/5
f 13/23/5 12/22/5 14/24/5
f 12/25/6 15/26/6 14/24/6
f 14/24/6 15/26/6 16/27/6
f 15/28/3 17/29/3 16/27/3
f 16/27/3 17/29/3 18/30/3
f 17/31/4 11/32/4 18/30/4
f 18/30/4 11/32/4 13/23/4
f 11/32/2 17/31/2 10/33/2
f 10/34/2 17/29/2 15/28/2
f 10/34/2 15/28/2 9/35/2
f 9/36/2 15/26/2 12/25/2
f 9/36/2 12/25/2 8/37/2
f 8/38/2 12/22/2 11/21/2
f 8/38/2 11/21/2 7/39/2
f 7/40/2 11/32/2 10/33/2
f 13/23/7 14/24/7 18/30/7
f 18/30/7 14/24/7 16/27/7
