#
# Object file
# Created by SpaceClaim
#

mtllib Basen.mtl

# Basen\Bryła
v 5 -7.5 0
v 5 7.5 0
v -5 7.5 0
v -5 -7.5 0
v 5 -7.5 0
v -5 -7.5 0
v -5 -7.5 5
v 5 -7.5 5
v -5 -7.5 0
v -5 7.5 0
v -5 7.5 5
v -5 -7.5 5
v -6 -8.5 -0.5
v -6 8.5 -0.5
v 6 8.5 -0.5
v 6 -8.5 -0.5
v 6 8.5 5
v 6 -8.5 5
v 6 -8.5 -0.5
v 6 8.5 -0.5
v 6 -8.5 5
v -6 -8.5 5
v -6 -8.5 -0.5
v 6 -8.5 -0.5
v -6 -8.5 5
v -6 8.5 5
v -6 8.5 -0.5
v -6 -8.5 -0.5
v -6 8.5 5
v 6 8.5 5
v 6 8.5 -0.5
v -6 8.5 -0.5
v -5 7.5 0
v 5 7.5 0
v 5 7.5 5
v -5 7.5 5
v 5 7.5 0
v 5 -7.5 0
v 5 -7.5 5
v 5 7.5 5
v -5 7.5 5
v 5 7.5 5
v 5 -7.5 5
v -5 -7.5 5
v 6 -8.5 5
v 6 8.5 5
v -6 8.5 5
v -6 -8.5 5
vn 0 0 1
vn 0 0 1
vn 0 0 1
vn 0 0 1
vn 0 1 0
vn 0 1 0
vn 0 1 0
vn 0 1 0
vn 1 0 0
vn 1 0 0
vn 1 0 0
vn 1 0 0
vn 0 0 -1
vn 0 0 -1
vn 0 0 -1
vn 0 0 -1
vn 1 0 0
vn 1 0 0
vn 1 0 0
vn 1 0 0
vn 0 -1 0
vn 0 -1 0
vn 0 -1 0
vn 0 -1 0
vn -1 0 0
vn -1 0 0
vn -1 0 0
vn -1 0 0
vn 0 1 0
vn 0 1 0
vn 0 1 0
vn 0 1 0
vn 0 -1 0
vn 0 -1 0
vn 0 -1 0
vn 0 -1 0
vn -1 0 0
vn -1 0 0
vn -1 0 0
vn -1 0 0
vn 0 0 1
vn 0 0 1
vn 0 0 1
vn 0 0 1
vn 0 0 1
vn 0 0 1
vn 0 0 1
vn 0 0 1
vt 0.005 -0.0075
vt 0.005 0.0075
vt -0.005 0.0075
vt -0.005 -0.0075
vt -0.005 0
vt 0.005 0
vt 0.005 0.005
vt -0.005 0.005
vt -0.0075 0
vt 0.0075 0
vt 0.0075 0.005
vt -0.0075 0.005
vt -0.006 -0.0085
vt -0.006 0.0085
vt 0.006 0.0085
vt 0.006 -0.0085
vt 0.0085 0.005
vt -0.0085 0.005
vt -0.0085 -0.0005
vt 0.0085 -0.0005
vt 0.006 0.005
vt -0.006 0.005
vt -0.006 -0.0005
vt 0.006 -0.0005
vt 0.0085 0.005
vt -0.0085 0.005
vt -0.0085 -0.0005
vt 0.0085 -0.0005
vt 0.006 0.005
vt -0.006 0.005
vt -0.006 -0.0005
vt 0.006 -0.0005
vt -0.005 0
vt 0.005 0
vt 0.005 0.005
vt -0.005 0.005
vt -0.0075 0
vt 0.0075 0
vt 0.0075 0.005
vt -0.0075 0.005
vt -0.005 0.0075
vt 0.005 0.0075
vt 0.005 -0.0075
vt -0.005 -0.0075
vt 0.006 -0.0085
vt 0.006 0.0085
vt -0.006 0.0085
vt -0.006 -0.0085

o Basen\Bryła
g Basen\Bryła
s off

usemtl c_0

# face 0
f 2/2/2 3/3/3 1/1/1
f 1/1/1 3/3/3 4/4/4

# face 1
f 5/5/5 6/6/6 8/8/8
f 8/8/8 6/6/6 7/7/7

# face 2
f 9/9/9 10/10/10 12/12/12
f 12/12/12 10/10/10 11/11/11

# face 3
f 14/14/14 15/15/15 13/13/13
f 13/13/13 15/15/15 16/16/16

# face 4
f 17/17/17 18/18/18 20/20/20
f 20/20/20 18/18/18 19/19/19

# face 5
f 21/21/21 22/22/22 24/24/24
f 24/24/24 22/22/22 23/23/23

# face 6
f 25/25/25 26/26/26 28/28/28
f 28/28/28 26/26/26 27/27/27

# face 7
f 29/29/29 30/30/30 32/32/32
f 32/32/32 30/30/30 31/31/31

# face 8
f 33/33/33 34/34/34 36/36/36
f 36/36/36 34/34/34 35/35/35

# face 9
f 37/37/37 38/38/38 40/40/40
f 40/40/40 38/38/38 39/39/39

# face 10
f 45/45/45 46/46/46 42/42/42
f 42/42/42 46/46/46 47/47/47
f 42/42/42 47/47/47 41/41/41
f 41/41/41 47/47/47 48/48/48
f 41/41/41 48/48/48 44/44/44
f 44/44/44 48/48/48 45/45/45
f 44/44/44 45/45/45 43/43/43
f 43/43/43 45/45/45 42/42/42
