# Blender v2.80 (sub 75) OBJ File: ''
# www.blender.org
mtllib ramkaTex.mtl
o Ramka2
v -0.443902 0.019616 0.628902
v 0.443902 0.019616 0.628902
v -0.440000 0.020000 0.625000
v 0.440000 0.020000 0.625000
v -0.436098 0.019616 0.621098
v 0.436098 0.019616 0.621098
v -0.432346 0.018478 0.617346
v 0.432346 0.018478 0.617346
v -0.428889 0.016629 0.613889
v 0.428889 0.016629 0.613889
v -0.425858 0.014142 0.610858
v 0.425858 0.014142 0.610858
v -0.423371 0.011111 0.608371
v 0.423371 0.011111 0.608371
v -0.421522 0.007654 0.606522
v 0.421522 0.007654 0.606522
v -0.420384 0.003902 0.605384
v 0.420384 0.003902 0.605384
v -0.420000 -0.000000 0.605000
v 0.420000 -0.000000 0.605000
v -0.420384 -0.003902 0.605384
v 0.420384 -0.003902 0.605384
v -0.421522 -0.007654 0.606522
v 0.421522 -0.007654 0.606522
v -0.423371 -0.011111 0.608371
v 0.423371 -0.011111 0.608371
v -0.425858 -0.014142 0.610858
v 0.425858 -0.014142 0.610858
v -0.428889 -0.016629 0.613889
v 0.428889 -0.016629 0.613889
v -0.432346 -0.018478 0.617346
v 0.432346 -0.018478 0.617346
v -0.436098 -0.019616 0.621098
v 0.436098 -0.019616 0.621098
v -0.440000 -0.020000 0.625000
v 0.440000 -0.020000 0.625000
v -0.443902 -0.019616 0.628902
v 0.443902 -0.019616 0.628902
v -0.447654 -0.018478 0.632654
v 0.447654 -0.018478 0.632654
v -0.451111 -0.016629 0.636111
v 0.451111 -0.016629 0.636111
v -0.454142 -0.014142 0.639142
v 0.454142 -0.014142 0.639142
v -0.456629 -0.011111 0.641629
v 0.456629 -0.011111 0.641629
v -0.458478 -0.007654 0.643478
v 0.458478 -0.007654 0.643478
v -0.459616 -0.003902 0.644616
v 0.459616 -0.003902 0.644616
v -0.460000 -0.000000 0.645000
v 0.460000 -0.000000 0.645000
v -0.459616 0.003902 0.644616
v 0.459616 0.003902 0.644616
v -0.458478 0.007654 0.643478
v 0.458478 0.007654 0.643478
v -0.456629 0.011111 0.641629
v 0.456629 0.011111 0.641629
v -0.454142 0.014142 0.639142
v 0.454142 0.014142 0.639142
v -0.451111 0.016629 0.636111
v 0.451111 0.016629 0.636111
v -0.447654 0.018478 0.632654
v 0.447654 0.018478 0.632654
v 0.443902 -0.019616 -0.628902
v 0.440000 -0.020000 -0.625000
v 0.436098 -0.019616 -0.621098
v 0.432346 -0.018478 -0.617346
v 0.428889 -0.016629 -0.613889
v 0.425858 -0.014142 -0.610858
v 0.423371 -0.011111 -0.608371
v 0.421522 -0.007654 -0.606522
v 0.420384 -0.003902 -0.605384
v 0.420000 0.000000 -0.605000
v 0.420384 0.003902 -0.605384
v 0.421522 0.007654 -0.606522
v 0.423371 0.011111 -0.608371
v 0.425858 0.014142 -0.610858
v 0.428889 0.016629 -0.613889
v 0.432346 0.018478 -0.617346
v 0.436098 0.019616 -0.621098
v 0.440000 0.020000 -0.625000
v 0.443902 0.019616 -0.628902
v 0.447654 0.018478 -0.632654
v 0.451111 0.016629 -0.636111
v 0.454142 0.014142 -0.639142
v 0.456629 0.011111 -0.641629
v 0.458478 0.007654 -0.643478
v 0.459616 0.003902 -0.644616
v 0.460000 0.000000 -0.645000
v 0.459616 -0.003902 -0.644616
v 0.458478 -0.007654 -0.643478
v 0.456629 -0.011111 -0.641629
v 0.454142 -0.014142 -0.639142
v 0.451111 -0.016629 -0.636111
v 0.447654 -0.018478 -0.632654
v -0.443902 -0.019616 -0.628902
v -0.440000 -0.020000 -0.625000
v -0.436098 -0.019616 -0.621098
v -0.432346 -0.018478 -0.617346
v -0.428889 -0.016629 -0.613889
v -0.425858 -0.014142 -0.610858
v -0.423371 -0.011111 -0.608371
v -0.421522 -0.007654 -0.606522
v -0.420384 -0.003902 -0.605384
v -0.420000 0.000000 -0.605000
v -0.420384 0.003902 -0.605384
v -0.421522 0.007654 -0.606522
v -0.423371 0.011111 -0.608371
v -0.425858 0.014142 -0.610858
v -0.428889 0.016629 -0.613889
v -0.432346 0.018478 -0.617346
v -0.436098 0.019616 -0.621098
v -0.440000 0.020000 -0.625000
v -0.443902 0.019616 -0.628902
v -0.447654 0.018478 -0.632654
v -0.451111 0.016629 -0.636111
v -0.454142 0.014142 -0.639142
v -0.456629 0.011111 -0.641629
v -0.458478 0.007654 -0.643478
v -0.459616 0.003902 -0.644616
v -0.460000 0.000000 -0.645000
v -0.459616 -0.003902 -0.644616
v -0.458478 -0.007654 -0.643478
v -0.456629 -0.011111 -0.641629
v -0.454142 -0.014142 -0.639142
v -0.451111 -0.016629 -0.636111
v -0.447654 -0.018478 -0.632654
vt 0.920754 0.005397
vt 0.468472 0.005397
vt 0.918766 0.007385
vt 0.470460 0.007385
vt 0.916778 0.009373
vt 0.472448 0.009373
vt 0.914867 0.011284
vt 0.474360 0.011284
vt 0.913105 0.013045
vt 0.476121 0.013045
vt 0.911561 0.014589
vt 0.477665 0.014589
vt 0.434077 0.651748
vt 0.000180 0.651748
vt 0.432810 0.653292
vt 0.001447 0.653292
vt 0.431868 0.655053
vt 0.002389 0.655053
vt 0.431288 0.656965
vt 0.002969 0.656964
vt 0.431093 0.658952
vt 0.003165 0.658952
vt 0.431288 0.660940
vt 0.002969 0.660940
vt 0.431868 0.662852
vt 0.002389 0.662852
vt 0.432810 0.664613
vt 0.001447 0.664613
vt 0.434077 0.666157
vt 0.000180 0.666157
vt 0.448486 0.014589
vt 0.014589 0.014589
vt 0.450030 0.013045
vt 0.013045 0.013045
vt 0.451791 0.011284
vt 0.011284 0.011284
vt 0.453703 0.009373
vt 0.009373 0.009373
vt 0.455690 0.007385
vt 0.007385 0.007385
vt 0.457678 0.005397
vt 0.005397 0.005397
vt 0.459590 0.003486
vt 0.003486 0.003486
vt 0.461351 0.001725
vt 0.001725 0.001724
vt 0.462895 0.000180
vt 0.000180 0.000180
vt 0.999820 0.003165
vt 0.999820 0.465879
vt 0.998276 0.001898
vt 0.998276 0.467146
vt 0.996514 0.000956
vt 0.996514 0.468088
vt 0.994603 0.000376
vt 0.994603 0.468668
vt 0.992615 0.000180
vt 0.992615 0.468863
vt 0.990627 0.000376
vt 0.990627 0.468668
vt 0.988716 0.000956
vt 0.988716 0.468088
vt 0.986955 0.001898
vt 0.986955 0.467146
vt 0.985411 0.003165
vt 0.985411 0.465879
vt 0.925970 0.000180
vt 0.463256 0.000180
vt 0.924426 0.001725
vt 0.464800 0.001724
vt 0.922665 0.003486
vt 0.466561 0.003486
vt 0.005397 0.646170
vt 0.007385 0.644182
vt 0.009373 0.642195
vt 0.011284 0.640283
vt 0.013045 0.638522
vt 0.014589 0.636978
vt 0.985050 0.622569
vt 0.985050 0.000180
vt 0.983506 0.621302
vt 0.983506 0.001447
vt 0.981744 0.620360
vt 0.981745 0.002389
vt 0.979833 0.619780
vt 0.979833 0.002969
vt 0.977845 0.619585
vt 0.977845 0.003165
vt 0.975857 0.619780
vt 0.975857 0.002969
vt 0.973946 0.620360
vt 0.973946 0.002389
vt 0.972185 0.621302
vt 0.972185 0.001447
vt 0.970641 0.622569
vt 0.970641 0.000180
vt 0.477665 0.636978
vt 0.476121 0.638522
vt 0.474359 0.640283
vt 0.472448 0.642195
vt 0.470460 0.644182
vt 0.468472 0.646170
vt 0.466561 0.648082
vt 0.464800 0.649843
vt 0.463256 0.651387
vt 0.955510 0.003165
vt 0.955510 0.654371
vt 0.953966 0.001898
vt 0.953966 0.655638
vt 0.952205 0.000956
vt 0.952205 0.656580
vt 0.950293 0.000376
vt 0.950293 0.657160
vt 0.948305 0.000180
vt 0.948305 0.657355
vt 0.946318 0.000376
vt 0.946318 0.657160
vt 0.944406 0.000956
vt 0.944406 0.656580
vt 0.942645 0.001898
vt 0.942645 0.655638
vt 0.941101 0.003165
vt 0.941101 0.654371
vt 0.000180 0.651387
vt 0.001725 0.649843
vt 0.003486 0.648082
vt 0.457678 0.646170
vt 0.455690 0.644182
vt 0.453703 0.642195
vt 0.451791 0.640283
vt 0.450030 0.638522
vt 0.448486 0.636978
vt 0.434077 0.680927
vt 0.000180 0.680927
vt 0.432810 0.679383
vt 0.001447 0.679383
vt 0.431868 0.677621
vt 0.002389 0.677621
vt 0.431288 0.675710
vt 0.002969 0.675710
vt 0.431093 0.673722
vt 0.003165 0.673722
vt 0.431288 0.671734
vt 0.002969 0.671734
vt 0.431868 0.669823
vt 0.002389 0.669823
vt 0.432810 0.668062
vt 0.001447 0.668062
vt 0.434077 0.666518
vt 0.000180 0.666518
vt 0.911561 0.636978
vt 0.913105 0.638522
vt 0.914866 0.640283
vt 0.916778 0.642195
vt 0.918766 0.644182
vt 0.920754 0.646170
vt 0.922665 0.648082
vt 0.924426 0.649843
vt 0.925970 0.651387
vt 0.985411 0.472209
vt 0.985411 0.934923
vt 0.986955 0.470942
vt 0.986955 0.936190
vt 0.988716 0.470000
vt 0.988716 0.937132
vt 0.990627 0.469420
vt 0.990627 0.937712
vt 0.992615 0.469224
vt 0.992615 0.937907
vt 0.994603 0.469420
vt 0.994603 0.937712
vt 0.996514 0.470000
vt 0.996514 0.937132
vt 0.998276 0.470942
vt 0.998276 0.936190
vt 0.999820 0.472209
vt 0.999820 0.934923
vt 0.462895 0.651387
vt 0.461351 0.649843
vt 0.459590 0.648082
vt 0.970280 0.000180
vt 0.970280 0.622569
vt 0.968736 0.001447
vt 0.968736 0.621302
vt 0.966975 0.002389
vt 0.966975 0.620360
vt 0.965063 0.002969
vt 0.965063 0.619780
vt 0.963075 0.003165
vt 0.963075 0.619585
vt 0.961088 0.002969
vt 0.961087 0.619780
vt 0.959176 0.002389
vt 0.959176 0.620360
vt 0.957415 0.001447
vt 0.957415 0.621302
vt 0.955871 0.000180
vt 0.955871 0.622569
vt 0.940740 0.654371
vt 0.940740 0.003165
vt 0.939196 0.655638
vt 0.939196 0.001898
vt 0.937435 0.656580
vt 0.937435 0.000956
vt 0.935523 0.657160
vt 0.935523 0.000376
vt 0.933536 0.657355
vt 0.933536 0.000180
vt 0.931548 0.657160
vt 0.931548 0.000376
vt 0.929636 0.656580
vt 0.929636 0.000956
vt 0.927875 0.655638
vt 0.927875 0.001898
vt 0.926331 0.654371
vt 0.926331 0.003165
vn 0.0000 0.9952 0.0979
vn 0.0000 0.9952 -0.0979
vn 0.0000 0.9570 -0.2902
vn 0.0000 0.8818 -0.4716
vn 0.0000 0.7731 -0.6343
vn 0.0000 0.6343 -0.7731
vn 0.0000 0.4716 -0.8818
vn 0.0000 0.4713 -0.8820
vn 0.0000 0.2903 -0.9569
vn 0.0000 0.0979 -0.9952
vn 0.0000 -0.0979 -0.9952
vn 0.0000 -0.2903 -0.9569
vn 0.0000 -0.4716 -0.8818
vn 0.0000 -0.6343 -0.7731
vn 0.0000 -0.7731 -0.6343
vn 0.0000 -0.8818 -0.4716
vn 0.0000 -0.9570 -0.2902
vn 0.0000 -0.9952 -0.0979
vn 0.0000 -0.9952 0.0979
vn 0.0000 -0.9570 0.2902
vn 0.0000 -0.8818 0.4716
vn 0.0000 -0.7731 0.6343
vn 0.0000 -0.6343 0.7731
vn 0.0000 -0.4716 0.8818
vn 0.0000 -0.2903 0.9569
vn 0.0000 -0.0979 0.9952
vn 0.0000 0.0979 0.9952
vn 0.0000 0.2903 0.9569
vn 0.0000 0.4716 0.8818
vn 0.0000 0.6343 0.7731
vn 0.0000 0.7731 0.6343
vn 0.0000 0.8818 0.4716
vn 0.0000 0.9570 0.2902
vn 0.0979 -0.9952 -0.0000
vn -0.0979 -0.9952 -0.0000
vn -0.2902 -0.9570 -0.0000
vn -0.4716 -0.8818 -0.0000
vn -0.6343 -0.7731 -0.0000
vn -0.7731 -0.6343 -0.0000
vn -0.8818 -0.4716 -0.0000
vn -0.9569 -0.2903 -0.0000
vn -0.9570 -0.2902 -0.0000
vn -0.9952 -0.0979 -0.0000
vn -0.9952 0.0979 0.0000
vn -0.9570 0.2902 0.0000
vn -0.9569 0.2903 0.0000
vn -0.8818 0.4716 0.0000
vn -0.7731 0.6343 0.0000
vn -0.6343 0.7731 0.0000
vn -0.4716 0.8818 0.0000
vn -0.2902 0.9570 0.0000
vn -0.0979 0.9952 0.0000
vn 0.0979 0.9952 0.0000
vn 0.2902 0.9570 0.0000
vn 0.4716 0.8818 0.0000
vn 0.6343 0.7731 0.0000
vn 0.7731 0.6343 0.0000
vn 0.8818 0.4716 0.0000
vn 0.9569 0.2903 0.0000
vn 0.9570 0.2902 0.0000
vn 0.9952 0.0979 0.0000
vn 0.9952 0.0980 0.0000
vn 0.9952 -0.0980 -0.0000
vn 0.9952 -0.0979 -0.0000
vn 0.9570 -0.2902 -0.0000
vn 0.9569 -0.2903 -0.0000
vn 0.8818 -0.4716 -0.0000
vn 0.7731 -0.6343 -0.0000
vn 0.6343 -0.7731 -0.0000
vn 0.4716 -0.8818 -0.0000
vn 0.2903 -0.9570 -0.0000
vn 0.2902 -0.9570 -0.0000
vn 0.0000 -0.4713 0.8820
vn -0.9952 0.0980 0.0000
vn -0.9952 -0.0980 -0.0000
vn -0.2903 -0.9570 -0.0000
usemtl None
s 1
f 1/1/1 2/2/1 3/3/1
f 3/3/1 2/2/1 4/4/1
f 3/3/2 4/4/2 5/5/2
f 5/5/2 4/4/2 6/6/2
f 5/5/3 6/6/3 7/7/3
f 7/7/3 6/6/3 8/8/3
f 7/7/4 8/8/4 9/9/4
f 9/9/4 8/8/4 10/10/4
f 9/9/5 10/10/5 11/11/5
f 11/11/5 10/10/5 12/12/5
f 11/13/6 12/14/6 13/15/6
f 13/15/6 12/14/6 14/16/6
f 13/15/7 14/16/7 15/17/8
f 15/17/8 14/16/7 16/18/7
f 15/17/9 16/18/9 17/19/9
f 17/19/9 16/18/9 18/20/9
f 17/19/10 18/20/10 19/21/10
f 19/21/10 18/20/10 20/22/10
f 19/21/11 20/22/11 21/23/11
f 21/23/11 20/22/11 22/24/11
f 21/23/12 22/24/12 23/25/12
f 23/25/12 22/24/12 24/26/12
f 23/25/13 24/26/13 25/27/13
f 25/27/13 24/26/13 26/28/13
f 25/27/14 26/28/14 27/29/14
f 27/29/14 26/28/14 28/30/14
f 27/31/15 28/32/15 29/33/15
f 29/33/15 28/32/15 30/34/15
f 29/33/16 30/34/16 31/35/16
f 31/35/16 30/34/16 32/36/16
f 31/35/17 32/36/17 33/37/17
f 33/37/17 32/36/17 34/38/17
f 33/37/18 34/38/18 35/39/18
f 35/39/18 34/38/18 36/40/18
f 35/39/19 36/40/19 37/41/19
f 37/41/19 36/40/19 38/42/19
f 37/41/20 38/42/20 39/43/20
f 39/43/20 38/42/20 40/44/20
f 39/43/21 40/44/21 41/45/21
f 41/45/21 40/44/21 42/46/21
f 41/45/22 42/46/22 43/47/22
f 43/47/22 42/46/22 44/48/22
f 43/49/23 44/50/23 45/51/23
f 45/51/23 44/50/23 46/52/23
f 45/51/24 46/52/24 47/53/24
f 47/53/24 46/52/24 48/54/24
f 47/53/25 48/54/25 49/55/25
f 49/55/25 48/54/25 50/56/25
f 49/55/26 50/56/26 51/57/26
f 51/57/26 50/56/26 52/58/26
f 51/57/27 52/58/27 53/59/27
f 53/59/27 52/58/27 54/60/27
f 53/59/28 54/60/28 55/61/28
f 55/61/28 54/60/28 56/62/28
f 55/61/29 56/62/29 57/63/29
f 57/63/29 56/62/29 58/64/29
f 57/63/30 58/64/30 59/65/30
f 59/65/30 58/64/30 60/66/30
f 59/67/31 60/68/31 61/69/31
f 61/69/31 60/68/31 62/70/31
f 61/69/32 62/70/32 63/71/32
f 63/71/32 62/70/32 64/72/32
f 63/71/33 64/72/33 1/1/33
f 1/1/33 64/72/33 2/2/33
f 65/73/34 38/42/34 66/74/34
f 66/74/34 38/42/34 36/40/34
f 66/74/35 36/40/35 67/75/35
f 67/75/35 36/40/35 34/38/35
f 67/75/36 34/38/36 68/76/36
f 68/76/36 34/38/36 32/36/36
f 68/76/37 32/36/37 69/77/37
f 69/77/37 32/36/37 30/34/37
f 69/77/38 30/34/38 70/78/38
f 70/78/38 30/34/38 28/32/38
f 70/79/39 28/80/39 71/81/39
f 71/81/39 28/80/39 26/82/39
f 71/81/40 26/82/40 72/83/40
f 72/83/40 26/82/40 24/84/40
f 72/83/41 24/84/42 73/85/41
f 73/85/41 24/84/42 22/86/42
f 73/85/43 22/86/43 74/87/43
f 74/87/43 22/86/43 20/88/43
f 74/87/44 20/88/44 75/89/44
f 75/89/44 20/88/44 18/90/44
f 75/89/45 18/90/46 76/91/45
f 76/91/45 18/90/46 16/92/46
f 76/91/47 16/92/47 77/93/47
f 77/93/47 16/92/47 14/94/47
f 77/93/48 14/94/48 78/95/48
f 78/95/48 14/94/48 12/96/48
f 78/97/49 12/12/49 79/98/49
f 79/98/49 12/12/49 10/10/49
f 79/98/50 10/10/50 80/99/50
f 80/99/50 10/10/50 8/8/50
f 80/99/51 8/8/51 81/100/51
f 81/100/51 8/8/51 6/6/51
f 81/100/52 6/6/52 82/101/52
f 82/101/52 6/6/52 4/4/52
f 82/101/53 4/4/53 83/102/53
f 83/102/53 4/4/53 2/2/53
f 83/102/54 2/2/54 84/103/54
f 84/103/54 2/2/54 64/72/54
f 84/103/55 64/72/55 85/104/55
f 85/104/55 64/72/55 62/70/55
f 85/104/56 62/70/56 86/105/56
f 86/105/56 62/70/56 60/68/56
f 86/106/57 60/107/57 87/108/57
f 87/108/57 60/107/57 58/109/57
f 87/108/58 58/109/58 88/110/58
f 88/110/58 58/109/58 56/111/58
f 88/110/59 56/111/60 89/112/59
f 89/112/59 56/111/60 54/113/60
f 89/112/61 54/113/62 90/114/61
f 90/114/61 54/113/62 52/115/62
f 90/114/63 52/115/64 91/116/63
f 91/116/63 52/115/64 50/117/64
f 91/116/65 50/117/66 92/118/65
f 92/118/65 50/117/66 48/119/66
f 92/118/67 48/119/67 93/120/67
f 93/120/67 48/119/67 46/121/67
f 93/120/68 46/121/68 94/122/68
f 94/122/68 46/121/68 44/123/68
f 94/124/69 44/48/69 95/125/69
f 95/125/69 44/48/69 42/46/69
f 95/125/70 42/46/70 96/126/70
f 96/126/70 42/46/70 40/44/70
f 96/126/71 40/44/72 65/73/71
f 65/73/71 40/44/72 38/42/72
f 97/127/18 65/73/18 98/128/18
f 98/128/18 65/73/18 66/74/18
f 98/128/19 66/74/19 99/129/19
f 99/129/19 66/74/19 67/75/19
f 99/129/20 67/75/20 100/130/20
f 100/130/20 67/75/20 68/76/20
f 100/130/21 68/76/21 101/131/21
f 101/131/21 68/76/21 69/77/21
f 101/131/22 69/77/22 102/132/22
f 102/132/22 69/77/22 70/78/22
f 102/133/23 70/134/23 103/135/23
f 103/135/23 70/134/23 71/136/23
f 103/135/24 71/136/24 104/137/73
f 104/137/73 71/136/24 72/138/24
f 104/137/25 72/138/25 105/139/25
f 105/139/25 72/138/25 73/140/25
f 105/139/26 73/140/26 106/141/26
f 106/141/26 73/140/26 74/142/26
f 106/141/27 74/142/27 107/143/27
f 107/143/27 74/142/27 75/144/27
f 107/143/28 75/144/28 108/145/28
f 108/145/28 75/144/28 76/146/28
f 108/145/29 76/146/29 109/147/29
f 109/147/29 76/146/29 77/148/29
f 109/147/30 77/148/30 110/149/30
f 110/149/30 77/148/30 78/150/30
f 110/151/31 78/97/31 111/152/31
f 111/152/31 78/97/31 79/98/31
f 111/152/32 79/98/32 112/153/32
f 112/153/32 79/98/32 80/99/32
f 112/153/33 80/99/33 113/154/33
f 113/154/33 80/99/33 81/100/33
f 113/154/1 81/100/1 114/155/1
f 114/155/1 81/100/1 82/101/1
f 114/155/2 82/101/2 115/156/2
f 115/156/2 82/101/2 83/102/2
f 115/156/3 83/102/3 116/157/3
f 116/157/3 83/102/3 84/103/3
f 116/157/4 84/103/4 117/158/4
f 117/158/4 84/103/4 85/104/4
f 117/158/5 85/104/5 118/159/5
f 118/159/5 85/104/5 86/105/5
f 118/160/6 86/161/6 119/162/6
f 119/162/6 86/161/6 87/163/6
f 119/162/7 87/163/7 120/164/7
f 120/164/7 87/163/7 88/165/7
f 120/164/9 88/165/9 121/166/9
f 121/166/9 88/165/9 89/167/9
f 121/166/10 89/167/10 122/168/10
f 122/168/10 89/167/10 90/169/10
f 122/168/11 90/169/11 123/170/11
f 123/170/11 90/169/11 91/171/11
f 123/170/12 91/171/12 124/172/12
f 124/172/12 91/171/12 92/173/12
f 124/172/13 92/173/13 125/174/13
f 125/174/13 92/173/13 93/175/13
f 125/174/14 93/175/14 126/176/14
f 126/176/14 93/175/14 94/177/14
f 126/178/15 94/124/15 127/179/15
f 127/179/15 94/124/15 95/125/15
f 127/179/16 95/125/16 128/180/16
f 128/180/16 95/125/16 96/126/16
f 128/180/17 96/126/17 97/127/17
f 97/127/17 96/126/17 65/73/17
f 37/41/35 97/127/35 35/39/35
f 35/39/35 97/127/35 98/128/35
f 35/39/34 98/128/34 33/37/34
f 33/37/34 98/128/34 99/129/34
f 33/37/72 99/129/72 31/35/72
f 31/35/72 99/129/72 100/130/72
f 31/35/70 100/130/70 29/33/70
f 29/33/70 100/130/70 101/131/70
f 29/33/69 101/131/69 27/31/69
f 27/31/69 101/131/69 102/132/69
f 27/181/68 102/182/68 25/183/68
f 25/183/68 102/182/68 103/184/68
f 25/183/67 103/184/67 23/185/67
f 23/185/67 103/184/67 104/186/67
f 23/185/66 104/186/65 21/187/66
f 21/187/66 104/186/65 105/188/65
f 21/187/64 105/188/64 19/189/64
f 19/189/64 105/188/64 106/190/64
f 19/189/61 106/190/61 17/191/61
f 17/191/61 106/190/61 107/192/61
f 17/191/60 107/192/59 15/193/60
f 15/193/60 107/192/59 108/194/59
f 15/193/58 108/194/58 13/195/58
f 13/195/58 108/194/58 109/196/58
f 13/195/57 109/196/57 11/197/57
f 11/197/57 109/196/57 110/198/57
f 11/11/56 110/151/56 9/9/56
f 9/9/56 110/151/56 111/152/56
f 9/9/55 111/152/55 7/7/55
f 7/7/55 111/152/55 112/153/55
f 7/7/54 112/153/54 5/5/54
f 5/5/54 112/153/54 113/154/54
f 5/5/53 113/154/53 3/3/53
f 3/3/53 113/154/53 114/155/53
f 3/3/52 114/155/52 1/1/52
f 1/1/52 114/155/52 115/156/52
f 1/1/51 115/156/51 63/71/51
f 63/71/51 115/156/51 116/157/51
f 63/71/50 116/157/50 61/69/50
f 61/69/50 116/157/50 117/158/50
f 61/69/49 117/158/49 59/67/49
f 59/67/49 117/158/49 118/159/49
f 59/199/48 118/200/48 57/201/48
f 57/201/48 118/200/48 119/202/48
f 57/201/47 119/202/47 55/203/47
f 55/203/47 119/202/47 120/204/47
f 55/203/46 120/204/45 53/205/46
f 53/205/46 120/204/45 121/206/45
f 53/205/44 121/206/74 51/207/44
f 51/207/44 121/206/74 122/208/74
f 51/207/75 122/208/43 49/209/75
f 49/209/75 122/208/43 123/210/43
f 49/209/42 123/210/41 47/211/42
f 47/211/42 123/210/41 124/212/41
f 47/211/40 124/212/40 45/213/40
f 45/213/40 124/212/40 125/214/40
f 45/213/39 125/214/39 43/215/39
f 43/215/39 125/214/39 126/216/39
f 43/47/38 126/178/38 41/45/38
f 41/45/38 126/178/38 127/179/38
f 41/45/37 127/179/37 39/43/37
f 39/43/37 127/179/37 128/180/37
f 39/43/76 128/180/36 37/41/76
f 37/41/76 128/180/36 97/127/36
